<svg version="1" xmlns="http://www.w3.org/2000/svg" width="346.667" height="346.667" viewBox="0 0 260.000000 260.000000"><path d="M1 119.2c0 15.9.3 20.8 1.3 20.9 5.5.5 23.5.3 24.8-.3 1.1-.5 1.6-2 1.5-5l-.2-4.3-7.7.1H13V98.3l-6 .1-6 .1v20.7zM40 99.5c-7.2 3.3-10.6 11.7-9.7 23.8.6 7.7 3 12.8 7.1 15.3 3.6 2.2 4.7 2.4 10.4 2.5 6 .1 10.2-2.7 13.2-8.6 2-4.2 2.4-6.4 2.4-13.5 0-9.6-2-14.9-6.6-18.3-3.6-2.7-12.1-3.3-16.8-1.2zm11 9.9c1.3 2.4 2 13.9 1.2 18.4-.3 1.3-1.5 3-2.8 3.9-2.1 1.4-2.7 1.4-4.7 0-1.4-.9-2.4-2.7-2.6-4.8-.8-6.7-.2-17 .9-18.5 2-2.3 6.5-1.8 8 1zM65 100.5c0 1.1.7 4.8 1.5 8.2.8 3.4 2.6 11.7 4 18.4 1.4 6.8 3 12.6 3.5 12.9.6.4 3.6.6 6.7.5 6.2-.2 6.6-.5 7.6-8 1.3-8.7 3-18.5 3.3-18.2.2.1 1 5.2 1.9 11.2 2.3 16.6 1.4 15.1 9 14.9 3.6 0 6.7-.3 6.9-.5.7-.9 8.6-40.1 8.1-40.8-.2-.5-2.6-.8-5.2-.7-5.2.1-5.6.8-6.9 10.6-.3 2.5-.8 5.8-1.1 7.5-.7 4.2-1 6.6-1.2 9.4 0 1.3-.3 2.2-.5 2-.5-.4-3.4-16.9-4.3-24.4-.3-2.2-.7-4.2-.9-4.4-.2-.2-2.8-.5-5.8-.6-6.1-.3-5.9-.6-7.2 9-.3 2.7-1.2 8.1-1.9 12-.8 3.8-1.1 7.4-.8 7.9.3.5.1.6-.4.3-.9-.6-2.2-7-2.8-13.7-.1-1.6-1.8-12-2.1-13.3-.1-.4-.2-1.1-.3-1.5 0-.5-2.6-.8-5.6-.8-4.9 0-5.5.3-5.5 2.1zM138.2 98.9c-1.2.8-1.2 41.1 0 41.2.4.1 2.4.1 4.3.1 7.5 0 7.1.6 6.9-8.2l-.2-8H162v-4c0-3.5-.3-4-2.2-4.1-1.3-.1-4.1-.2-6.3-.3-4-.1-4-.1-4-4.1v-3.9l7.5-.1h7.5v-9l-12.7-.1c-7 0-13.1.2-13.6.5zM169.2 119.4l.3 21 12.3.1c6.8 0 12.8-.3 13.5-.7.6-.3 1.2-2.4 1.3-4.6l.2-4-7.7.1-7.6.2-.3-4.3-.3-4.2H194v-8h-13.1l.3-3.8.3-3.7 6-.1c3.3-.1 6.7-.2 7.6-.3 1.1-.1 1.5-1.2 1.5-4.1 0-2.2-.3-4.1-.6-4.1-.3-.1-6.5-.2-13.8-.3l-13.2-.2.2 21zM201 119c0 15.8.3 20.9 1.3 21.2.6.2 6.8.3 13.6.3l12.5-.1.1-4.7c.1-2.6-.1-4.7-.4-4.8-.3-.1-3.7-.2-7.6-.3l-7-.1-.5-16-.5-16-5.7-.1-5.8-.1V119zM231.9 99c-.1.3-.2 9.6-.3 20.7-.1 12.8.3 20.4.9 20.6.5.1 6.6.2 13.5.2l12.5-.1v-9.8l-7.5-.1h-7.5l-.1-15c-.1-8.3-.2-15.5-.3-16.1-.1-1.1-11-1.5-11.2-.4zM49.4 145.5c.3.9.6 1.9.6 2.1 0 .2.7.4 1.5.4s1.5.6 1.5 1.3c0 1.5-5.3 10.2-6.8 11.1-.6.3-2.5 2.5-4.3 4.8l-3.3 4.1 2.9-.7c1.7-.4 5.1-3 8-6.1 4.9-5.3 17.6-14.5 20-14.5 2 0 2.4 1.1 1.4 3.4-1.4 3.1-6.8 6.4-11.4 7.2-4.1.6-6.5 1.9-6.5 3.6 0 .5.8.8 1.7.6 1-.2 2.5 1 3.7 2.9 1.8 2.7 2.7 3.2 5.9 3.3 3.1 0 3.8-.3 3.5-1.8-.2-.9-.5-1.5-.8-1.3-.7.6-5-1.8-5-2.8 0-.4 1.8-1.6 4.1-2.6 5.2-2.4 9.2-7.6 9.1-11.7 0-1.7-.7-3.5-1.4-4-2-1.3-6.8-.1-12.1 3.2-5.6 3.5-6.1 3.6-4.8 1.2 1.4-2.6-.1-4.3-4.4-4.9-3.3-.4-3.7-.3-3.1 1.2zM178.5 145.6c-11.8 6.1-18.6 17.9-12.8 22.1 2.2 1.6 12.5 1.7 14.1.1 2.1-2.1 1.3-2.6-4.9-2.6-7.1 0-8.7-1.3-6.2-5.2 2.7-4.3 5.6-7.2 10.2-10.1 5.1-3.3 6.1-3.5 6.1-1.4 0 1.7-3.2 4.9-8.2 8.1-4.2 2.7-4.9 4.4-1.8 4.4 2.8 0 6.7-2.6 11.3-7.5l3.7-4-3.6 8.2c-2 4.5-3.4 8.9-3.1 9.7.8 2.1 6.7 2.2 6.7.1 0-.8-.7-1.5-1.5-1.5s-1.5-.2-1.5-.4c0-.3 1.8-4.7 4-9.7 3-7 3.7-9.5 2.8-10.1-.8-.4-2 .1-3.1 1.5-1 1.2-1.6 1.6-1.2.9 2-3.8-5.4-5.5-11-2.6zM214.7 146.2c-.9.7-3.2 5.1-5.1 9.8-3.7 9.1-3.6 12.2.4 12.8 2.3.4 7-3.2 7-5.4 0-.6.7-1.4 1.5-1.8 2.1-.8 1.8-2.3-.6-2.9-3-.8-5.1.3-4.6 2.3.5 2-.9 5-2.3 5-1.7 0-1.1-2.6 2.5-11.1 3.8-8.7 4.1-10.8 1.2-8.7zM121.2 150.2c-1.8 1.8-1.4 3.6.9 4.3 2 .7 3.8-.7 3.9-2.7 0-1.5-3.7-2.7-4.8-1.6zM120.2 157.7c-1.5.6-4.2 6.7-4.2 9.4 0 1.4.7 1.9 2.5 1.9 1.6 0 2.5-.6 2.5-1.5 0-.8-.5-1.5-1.1-1.5-.7 0-.8-.4-.2-1.3 1.7-2.2 3.2-6.6 2.5-7-.4-.2-1.3-.2-2 0zM132.4 158.5c-2.2 1.7-3.8 1.9-2.9.5.3-.6-.2-1-1.3-1-1.4 0-2.5 1.4-3.8 4.7-1.1 2.7-2 5.1-2.2 5.5-.2.5.3.8 1.1.8s2.9-1.6 4.6-3.7c3.2-3.7 5.1-4 3.2-.5-1.8 3.4-1.3 4.3 2.1 4 3.1-.3 5.3-2.8 2.4-2.8-1.3 0-1.3-.4-.1-3.4 1.2-2.8 1.2-3.6.1-4.5-.9-.8-1.8-.7-3.2.4zM141.8 160.3c-3.1 2.2-3.9 3.3-3.6 5.5.2 2.1.9 2.8 3.1 3 3.7.4 3.4 1.9-1.3 6.2-2.2 2-4 3.9-4 4.3 0 1.6 6.8-1.7 8.7-4.2 1-1.3 3.9-6.8 7.1-13.3.8-1.7-4.2.3-5.5 2.2-.8 1.1-2.3 2-3.4 2-1.7 0-1.8-.3-.7-2 1.2-1.9 4.5-3.6 8.2-4.2 1.1-.2 2.1-.9 2.4-1.6.7-2.3-6.9-.9-11 2.1zM71.9 162.5c-1.1 2.5-1.7 4.9-1.4 5.5.8 1.4 12.8.7 13.3-.8.2-.6-.3-1.2-1.2-1.2-1.9 0-2-.8-.1-4 1.9-3.4 1.8-4-.5-4-1.3 0-2.7 1.4-4 4-2.5 4.9-4.5 5.3-2.4.5 1.8-4.3 1.8-4.5-.2-4.5-.8 0-2.4 2-3.5 4.5zM86.5 163.2c-3.2 6.9-1.5 7.6 3.8 1.7 3.9-4.3 4-4.3 3.3-1.4-.4 1.6-.8 3.4-.9 4-.1.6 2 1 4.8 1 4.6-.1 5.4-.4 8.8-4l3.8-4-1.5 3.7c-.8 2-1.2 3.9-.8 4.2 1.2 1.2 6 .5 6.6-.9.3-.9 0-1.5-1-1.5-1.1 0-1.4-.6-1-1.6 2-5.2 1.9-6.4-.6-6.4-1.3 0-2.9.5-3.6 1.2-.9.9-1.2.9-1.2 0 0-2.8-3.3-.9-4.8 2.8-1.3 2.9-2.3 4-3.9 4-2.1 0-2.1-.1-.7-2.8.7-1.5 1.4-3.3 1.4-4 0-1.5-4.2-1.6-5.8 0-.9.9-1.2.9-1.2 0 0-.7-.7-1.2-1.5-1.2-.9 0-2.6 2.2-4 5.2zM193.5 161.2c-2.9 7.1-2.7 7.3 4.8 7.5 5.1.2 6.7-.1 6.7-1.1 0-.8-.7-1.7-1.6-2-1.1-.4-1.3-1-.6-1.9.5-.6 1.3-2.2 1.6-3.5.6-1.8.3-2.2-1.3-2.2-1.2 0-2.6 1.3-3.8 3.7-1 2-2.4 3.9-3.1 4.1-1.1.3-1-.3.2-2.6 2-3.9 2-5.2 0-5.2-.8 0-2.1 1.5-2.9 3.2z"/></svg>